<svg xmlns="http://www.w3.org/2000/svg" width="600" height="900" viewBox="0 0 600 900" role="img" aria-labelledby="title-00000000-0000-4000-8000-000000008001 desc-00000000-0000-4000-8000-000000008001" data-cover-asset-id="00000000-0000-4000-8000-000000008001" data-edition-id="00000000-0000-4000-8000-000000003000">
  <title id="title-00000000-0000-4000-8000-000000008001">Pride and Prejudice - CaseFlow Books illustrative cover</title>
  <desc id="desc-00000000-0000-4000-8000-000000008001">Project-created illustrative cover for Pride and Prejudice by Jane Austen.</desc>
  <metadata><![CDATA[{"assetId":"00000000-0000-4000-8000-000000008001","editionId":"00000000-0000-4000-8000-000000003000","title":"Pride and Prejudice","authors":["Jane Austen"],"language":"en","source":"project-created-vector"}]]></metadata>
  <rect width="600" height="900" fill="#FEF3C7"/>
  <rect x="34" y="34" width="532" height="832" rx="18" fill="#7C2D12" opacity="0.16"/>
  
      <path d="M52 198 C150 94 282 88 390 174 C462 232 504 326 520 440" fill="none" stroke="#D97706" stroke-width="18" stroke-linecap="round" opacity="0.35"/>
      <rect x="78" y="126" width="130" height="94" rx="8" fill="#FFFFFF" opacity="0.72"/>
      <path d="M96 158 H188 M96 184 H172" stroke="#7C2D12" stroke-width="7" stroke-linecap="round"/>
      <path d="M402 122 C450 160 482 208 492 268" fill="none" stroke="#92400E" stroke-width="10" opacity="0.28"/>
      <circle cx="438" cy="178" r="12" fill="#7C2D12" opacity="0.55"/>
    
  <rect x="72" y="390" width="456" height="386" rx="18" fill="#FFFBEB"/>
  <rect x="92" y="414" width="190" height="34" rx="17" fill="#7C2D12"/>
  <text x="187" y="437" text-anchor="middle" font-family="Arial, Helvetica, sans-serif" font-size="15" font-weight="700" fill="#FFFFFF">ENGLISH EDITION</text>
  <text x="508" y="438" text-anchor="end" font-family="Arial, Helvetica, sans-serif" font-size="14" font-weight="700" fill="#7C2D12">SPECIAL EDITION</text>
      <text x="300" y="490.5" text-anchor="middle" font-family="Georgia, 'Times New Roman', serif" font-size="42" font-weight="700" fill="#111827">Pride and</text>
      <text x="300" y="541.5" text-anchor="middle" font-family="Georgia, 'Times New Roman', serif" font-size="42" font-weight="700" fill="#111827">Prejudice</text>
  <text x="300" y="624.5" text-anchor="middle" font-family="Arial, Helvetica, sans-serif" font-size="22" font-weight="700" fill="#374151">Jane Austen</text>
  <path d="M118 742 H482" stroke="#7C2D12" stroke-width="4" stroke-linecap="round"/>
  <text x="300" y="816" text-anchor="middle" font-family="Arial, Helvetica, sans-serif" font-size="18" font-weight="700" letter-spacing="0" fill="#7C2D12">CASEFLOW BOOKS</text>
</svg>
