<svg xmlns="http://www.w3.org/2000/svg" width="600" height="900" viewBox="0 0 600 900" role="img" aria-labelledby="title-00000000-0000-4000-8000-000000008006 desc-00000000-0000-4000-8000-000000008006">
  <title id="title-00000000-0000-4000-8000-000000008006">Chiến tranh giữa các thế giới - CaseFlow Books illustrative cover</title>
  <desc id="desc-00000000-0000-4000-8000-000000008006">Illustrative cover for Chiến tranh giữa các thế giới by H. G. Wells.</desc>
  <rect width="600" height="900" fill="#111827"/>
  <rect x="34" y="34" width="532" height="832" rx="18" fill="#991B1B" opacity="0.16"/>
  
      <circle cx="300" cy="168" r="70" fill="#F97316" opacity="0.72"/>
      <g stroke="#F97316" stroke-width="4" opacity="0.42">
        <path d="M300 42 V320"/>
        <path d="M176 70 L424 296"/>
        <path d="M424 70 L176 296"/>
        <path d="M92 180 H508"/>
      </g>
      <path d="M72 330 C132 304 188 310 244 342 C306 378 368 370 528 324" fill="none" stroke="#F9FAFB" stroke-width="16" opacity="0.34"/>
      <path d="M250 312 L300 226 L350 312 Z" fill="#F9FAFB" opacity="0.18"/>
    
  <rect x="72" y="390" width="456" height="386" rx="18" fill="#F9FAFB"/>
  <rect x="92" y="414" width="190" height="34" rx="17" fill="#991B1B"/>
  <text x="187" y="437" text-anchor="middle" font-family="Arial, Helvetica, sans-serif" font-size="15" font-weight="700" fill="#FFFFFF">BẢN TIẾNG VIỆT</text>
  <text x="508" y="438" text-anchor="end" font-family="Arial, Helvetica, sans-serif" font-size="14" font-weight="700" fill="#991B1B">PAPERBACK</text>
      <text x="300" y="490.5" text-anchor="middle" font-family="Georgia, 'Times New Roman', serif" font-size="42" font-weight="700" fill="#111827">Chiến tranh giữa</text>
      <text x="300" y="541.5" text-anchor="middle" font-family="Georgia, 'Times New Roman', serif" font-size="42" font-weight="700" fill="#111827">các thế giới</text>
  <text x="300" y="624.5" text-anchor="middle" font-family="Arial, Helvetica, sans-serif" font-size="22" font-weight="700" fill="#374151">H. G. Wells</text>
  <path d="M118 742 H482" stroke="#991B1B" stroke-width="4" stroke-linecap="round"/>
  <text x="300" y="816" text-anchor="middle" font-family="Arial, Helvetica, sans-serif" font-size="18" font-weight="700" letter-spacing="0" fill="#991B1B">CASEFLOW BOOKS</text>
</svg>
