<svg xmlns="http://www.w3.org/2000/svg" width="600" height="900" viewBox="0 0 600 900" role="img" aria-labelledby="title-00000000-0000-4000-8000-000000008003 desc-00000000-0000-4000-8000-000000008003">
  <title id="title-00000000-0000-4000-8000-000000008003">The Adventures of Sherlock Holmes - CaseFlow Books illustrative cover</title>
  <desc id="desc-00000000-0000-4000-8000-000000008003">Illustrative cover for The Adventures of Sherlock Holmes by Arthur Conan Doyle.</desc>
  <rect width="600" height="900" fill="#0F172A"/>
  <rect x="34" y="34" width="532" height="832" rx="18" fill="#B45309" opacity="0.16"/>
  
      <g opacity="0.24" stroke="#CBD5E1" stroke-width="2">
        <path d="M60 118 H540 M60 174 H540 M60 230 H540 M60 286 H540"/>
        <path d="M104 90 V336 M184 90 V336 M264 90 V336 M344 90 V336 M424 90 V336 M504 90 V336"/>
      </g>
      <circle cx="410" cy="220" r="80" fill="none" stroke="#F59E0B" stroke-width="18" opacity="0.82"/>
      <path d="M462 278 L526 342" stroke="#F59E0B" stroke-width="22" stroke-linecap="round" opacity="0.82"/>
      <circle cx="410" cy="220" r="38" fill="#F8FAFC" opacity="0.14"/>
    
  <rect x="72" y="390" width="456" height="386" rx="18" fill="#F8FAFC"/>
  <rect x="92" y="414" width="190" height="34" rx="17" fill="#B45309"/>
  <text x="187" y="437" text-anchor="middle" font-family="Arial, Helvetica, sans-serif" font-size="15" font-weight="700" fill="#FFFFFF">ENGLISH EDITION</text>
  <text x="508" y="438" text-anchor="end" font-family="Arial, Helvetica, sans-serif" font-size="14" font-weight="700" fill="#B45309">PAPERBACK</text>
      <text x="300" y="490.5" text-anchor="middle" font-family="Georgia, 'Times New Roman', serif" font-size="42" font-weight="700" fill="#111827">The Adventures of</text>
      <text x="300" y="541.5" text-anchor="middle" font-family="Georgia, 'Times New Roman', serif" font-size="42" font-weight="700" fill="#111827">Sherlock Holmes</text>
  <text x="300" y="624.5" text-anchor="middle" font-family="Arial, Helvetica, sans-serif" font-size="22" font-weight="700" fill="#475569">Arthur Conan Doyle</text>
  <path d="M118 742 H482" stroke="#B45309" stroke-width="4" stroke-linecap="round"/>
  <text x="300" y="816" text-anchor="middle" font-family="Arial, Helvetica, sans-serif" font-size="18" font-weight="700" letter-spacing="0" fill="#B45309">CASEFLOW BOOKS</text>
</svg>
