<svg xmlns="http://www.w3.org/2000/svg" width="600" height="900" viewBox="0 0 600 900" role="img" aria-labelledby="title-00000000-0000-4000-8000-000000009005 desc-00000000-0000-4000-8000-000000009005" data-cover-asset-id="00000000-0000-4000-8000-000000009005" data-edition-id="00000000-0000-4000-8000-000000003029">
  <title id="title-00000000-0000-4000-8000-000000009005">Adventures of Huckleberry Finn - CaseFlow Books illustrative cover</title>
  <desc id="desc-00000000-0000-4000-8000-000000009005">Project-created illustrative cover for Adventures of Huckleberry Finn by Mark Twain.</desc>
  <metadata><![CDATA[{"assetId":"00000000-0000-4000-8000-000000009005","editionId":"00000000-0000-4000-8000-000000003029","title":"Adventures of Huckleberry Finn","authors":["Mark Twain"],"language":"en","source":"project-created-vector"}]]></metadata>
  <rect width="600" height="900" fill="#0F172A"/>
  <rect x="34" y="34" width="532" height="832" rx="18" fill="#991B1B" opacity="0.15"/>
  
        <path d="M90 322 C118 198 202 118 318 84" fill="none" stroke="#991B1B" stroke-width="15" stroke-linecap="round" opacity="0.42"/>
        <path d="M504 326 C482 206 414 126 314 82" fill="none" stroke="#94A3B8" stroke-width="15" stroke-linecap="round" opacity="0.42"/>
        <ellipse cx="210" cy="160" rx="62" ry="24" fill="#94A3B8" opacity="0.58" transform="rotate(-28 210 160)"/>
        <ellipse cx="390" cy="184" rx="62" ry="24" fill="#991B1B" opacity="0.48" transform="rotate(28 390 184)"/>
        <ellipse cx="288" cy="256" rx="74" ry="28" fill="#94A3B8" opacity="0.42" transform="rotate(5 288 256)"/>
      
  <rect x="72" y="390" width="456" height="386" rx="18" fill="#F8FAFC"/>
  <rect x="92" y="414" width="190" height="34" rx="17" fill="#991B1B"/>
  <text x="187" y="437" text-anchor="middle" font-family="Arial, Helvetica, sans-serif" font-size="15" font-weight="700" fill="#FFFFFF">ENGLISH EDITION</text>
  <text x="508" y="438" text-anchor="end" font-family="Arial, Helvetica, sans-serif" font-size="14" font-weight="700" fill="#991B1B">PAPERBACK</text>
      <text x="300" y="494.5" text-anchor="middle" font-family="Georgia, 'Times New Roman', serif" font-size="42" font-weight="700" fill="#111827">Adventures of</text>
      <text x="300" y="545.5" text-anchor="middle" font-family="Georgia, 'Times New Roman', serif" font-size="42" font-weight="700" fill="#111827">Huckleberry Finn</text>
  <text x="300" y="624.5" text-anchor="middle" font-family="Arial, Helvetica, sans-serif" font-size="21" font-weight="700" fill="#475569">Mark Twain</text>
  <path d="M118 742 H482" stroke="#991B1B" stroke-width="4" stroke-linecap="round"/>
  <text x="300" y="816" text-anchor="middle" font-family="Arial, Helvetica, sans-serif" font-size="18" font-weight="700" letter-spacing="0" fill="#991B1B">CASEFLOW BOOKS</text>
</svg>
