<svg xmlns="http://www.w3.org/2000/svg" width="600" height="900" viewBox="0 0 600 900" role="img" aria-labelledby="title-00000000-0000-4000-8000-000000009015 desc-00000000-0000-4000-8000-000000009015">
  <title id="title-00000000-0000-4000-8000-000000009015">Anne of Green Gables - CaseFlow Books illustrative cover</title>
  <desc id="desc-00000000-0000-4000-8000-000000009015">Illustrative cover for Anne of Green Gables by L. M. Montgomery.</desc>
  <rect width="600" height="900" fill="#111827"/>
  <rect x="34" y="34" width="532" height="832" rx="18" fill="#B45309" opacity="0.15"/>
  
        <g opacity="0.3" stroke="#F8FAFC" stroke-width="2">
          <path d="M70 118 H530 M70 174 H530 M70 230 H530 M70 286 H530"/>
          <path d="M114 92 V326 M194 92 V326 M274 92 V326 M354 92 V326 M434 92 V326 M514 92 V326"/>
        </g>
        <circle cx="335" cy="177" r="62" fill="none" stroke="#CBD5E1" stroke-width="16" opacity="0.8"/>
        <path d="M328 236 L392 300" stroke="#CBD5E1" stroke-width="20" stroke-linecap="round" opacity="0.76"/>
      
  <rect x="72" y="390" width="456" height="386" rx="18" fill="#F8FAFC"/>
  <rect x="92" y="414" width="190" height="34" rx="17" fill="#B45309"/>
  <text x="187" y="437" text-anchor="middle" font-family="Arial, Helvetica, sans-serif" font-size="15" font-weight="700" fill="#FFFFFF">ENGLISH EDITION</text>
  <text x="508" y="438" text-anchor="end" font-family="Arial, Helvetica, sans-serif" font-size="14" font-weight="700" fill="#B45309">PAPERBACK</text>
      <text x="300" y="494.5" text-anchor="middle" font-family="Georgia, 'Times New Roman', serif" font-size="42" font-weight="700" fill="#111827">Anne of Green</text>
      <text x="300" y="545.5" text-anchor="middle" font-family="Georgia, 'Times New Roman', serif" font-size="42" font-weight="700" fill="#111827">Gables</text>
  <text x="300" y="624.5" text-anchor="middle" font-family="Arial, Helvetica, sans-serif" font-size="21" font-weight="700" fill="#475569">L. M. Montgomery</text>
  <path d="M118 742 H482" stroke="#B45309" stroke-width="4" stroke-linecap="round"/>
  <text x="300" y="816" text-anchor="middle" font-family="Arial, Helvetica, sans-serif" font-size="18" font-weight="700" letter-spacing="0" fill="#B45309">CASEFLOW BOOKS</text>
</svg>
