<svg xmlns="http://www.w3.org/2000/svg" width="600" height="900" viewBox="0 0 600 900" role="img" aria-labelledby="title-00000000-0000-4000-8000-000000009020 desc-00000000-0000-4000-8000-000000009020">
  <title id="title-00000000-0000-4000-8000-000000009020">Tội ác và hình phạt - CaseFlow Books illustrative cover</title>
  <desc id="desc-00000000-0000-4000-8000-000000009020">Illustrative cover for Tội ác và hình phạt by Fyodor Dostoevsky.</desc>
  <rect width="600" height="900" fill="#FDF2F8"/>
  <rect x="34" y="34" width="532" height="832" rx="18" fill="#6D28D9" opacity="0.15"/>
  
        <g opacity="0.58">
          <rect x="78" y="126" width="82" height="202" rx="8" fill="#DB2777"/>
          <rect x="184" y="90" width="104" height="238" rx="8" fill="#6D28D9"/>
          <rect x="320" y="142" width="74" height="186" rx="8" fill="#DB2777"/>
          <rect x="426" y="112" width="92" height="216" rx="8" fill="#6D28D9"/>
        </g>
        <g stroke="#FFFFFF" stroke-width="5" opacity="0.68">
          <path d="M104 168 H136 M104 214 H136 M210 142 H262 M210 188 H262 M346 190 H370 M452 162 H496 M452 210 H496"/>
        </g>
      
  <rect x="72" y="390" width="456" height="386" rx="18" fill="#FFFFFF"/>
  <rect x="92" y="414" width="190" height="34" rx="17" fill="#6D28D9"/>
  <text x="187" y="437" text-anchor="middle" font-family="Arial, Helvetica, sans-serif" font-size="15" font-weight="700" fill="#FFFFFF">BẢN TIẾNG VIỆT</text>
  <text x="508" y="438" text-anchor="end" font-family="Arial, Helvetica, sans-serif" font-size="14" font-weight="700" fill="#6D28D9">PAPERBACK</text>
      <text x="300" y="494.5" text-anchor="middle" font-family="Georgia, 'Times New Roman', serif" font-size="42" font-weight="700" fill="#111827">Tội ác và hình</text>
      <text x="300" y="545.5" text-anchor="middle" font-family="Georgia, 'Times New Roman', serif" font-size="42" font-weight="700" fill="#111827">phạt</text>
  <text x="300" y="624.5" text-anchor="middle" font-family="Arial, Helvetica, sans-serif" font-size="21" font-weight="700" fill="#4B5563">Fyodor Dostoevsky</text>
  <path d="M118 742 H482" stroke="#6D28D9" stroke-width="4" stroke-linecap="round"/>
  <text x="300" y="816" text-anchor="middle" font-family="Arial, Helvetica, sans-serif" font-size="18" font-weight="700" letter-spacing="0" fill="#6D28D9">CASEFLOW BOOKS</text>
</svg>
