<svg xmlns="http://www.w3.org/2000/svg" width="600" height="900" viewBox="0 0 600 900" role="img" aria-labelledby="title-00000000-0000-4000-8000-000000009024 desc-00000000-0000-4000-8000-000000009024" data-cover-asset-id="00000000-0000-4000-8000-000000009024" data-edition-id="00000000-0000-4000-8000-000000004009">
  <title id="title-00000000-0000-4000-8000-000000009024">Bá tước Dracula - CaseFlow Books illustrative cover</title>
  <desc id="desc-00000000-0000-4000-8000-000000009024">Project-created illustrative cover for Bá tước Dracula by Bram Stoker.</desc>
  <metadata><![CDATA[{"assetId":"00000000-0000-4000-8000-000000009024","editionId":"00000000-0000-4000-8000-000000004009","title":"Bá tước Dracula","authors":["Bram Stoker"],"language":"vi","source":"project-created-vector"}]]></metadata>
  <rect width="600" height="900" fill="#0F172A"/>
  <rect x="34" y="34" width="532" height="832" rx="18" fill="#991B1B" opacity="0.15"/>
  
        <g opacity="0.3" stroke="#F8FAFC" stroke-width="2">
          <path d="M70 118 H530 M70 174 H530 M70 230 H530 M70 286 H530"/>
          <path d="M114 92 V326 M194 92 V326 M274 92 V326 M354 92 V326 M434 92 V326 M514 92 V326"/>
        </g>
        <circle cx="344" cy="156" r="62" fill="none" stroke="#94A3B8" stroke-width="16" opacity="0.8"/>
        <path d="M328 236 L392 300" stroke="#94A3B8" stroke-width="20" stroke-linecap="round" opacity="0.76"/>
      
  <rect x="72" y="390" width="456" height="386" rx="18" fill="#F8FAFC"/>
  <rect x="92" y="414" width="190" height="34" rx="17" fill="#991B1B"/>
  <text x="187" y="437" text-anchor="middle" font-family="Arial, Helvetica, sans-serif" font-size="15" font-weight="700" fill="#FFFFFF">BẢN TIẾNG VIỆT</text>
  <text x="508" y="438" text-anchor="end" font-family="Arial, Helvetica, sans-serif" font-size="14" font-weight="700" fill="#991B1B">PAPERBACK</text>
      <text x="300" y="520" text-anchor="middle" font-family="Georgia, 'Times New Roman', serif" font-size="42" font-weight="700" fill="#111827">Bá tước Dracula</text>
  <text x="300" y="599" text-anchor="middle" font-family="Arial, Helvetica, sans-serif" font-size="21" font-weight="700" fill="#475569">Bram Stoker</text>
  <path d="M118 742 H482" stroke="#991B1B" stroke-width="4" stroke-linecap="round"/>
  <text x="300" y="816" text-anchor="middle" font-family="Arial, Helvetica, sans-serif" font-size="18" font-weight="700" letter-spacing="0" fill="#991B1B">CASEFLOW BOOKS</text>
</svg>
