<svg xmlns="http://www.w3.org/2000/svg" width="600" height="900" viewBox="0 0 600 900" role="img" aria-labelledby="title-00000000-0000-4000-8000-000000009029 desc-00000000-0000-4000-8000-000000009029" data-cover-asset-id="00000000-0000-4000-8000-000000009029" data-edition-id="00000000-0000-4000-8000-000000003045">
  <title id="title-00000000-0000-4000-8000-000000009029">Grimms' Fairy Tales - CaseFlow Books illustrative cover</title>
  <desc id="desc-00000000-0000-4000-8000-000000009029">Project-created illustrative cover for Grimms' Fairy Tales by Jacob Grimm, Wilhelm Grimm.</desc>
  <metadata><![CDATA[{"assetId":"00000000-0000-4000-8000-000000009029","editionId":"00000000-0000-4000-8000-000000003045","title":"Grimms' Fairy Tales","authors":["Jacob Grimm","Wilhelm Grimm"],"language":"en","source":"project-created-vector"}]]></metadata>
  <rect width="600" height="900" fill="#FDF2F8"/>
  <rect x="34" y="34" width="532" height="832" rx="18" fill="#6D28D9" opacity="0.15"/>
  
        <path d="M70 158 C150 96 230 96 300 158 C372 222 452 220 536 156" fill="none" stroke="#DB2777" stroke-width="18" stroke-linecap="round" opacity="0.52"/>
        <path d="M80 250 C166 304 244 306 316 248 C378 198 454 198 530 252" fill="none" stroke="#6D28D9" stroke-width="12" stroke-linecap="round" opacity="0.42"/>
        <rect x="112" y="112" width="84" height="132" rx="42" fill="#FFFFFF" opacity="0.34"/>
        <rect x="404" y="178" width="84" height="132" rx="42" fill="#FFFFFF" opacity="0.34"/>
      
  <rect x="72" y="390" width="456" height="386" rx="18" fill="#FFFFFF"/>
  <rect x="92" y="414" width="190" height="34" rx="17" fill="#6D28D9"/>
  <text x="187" y="437" text-anchor="middle" font-family="Arial, Helvetica, sans-serif" font-size="15" font-weight="700" fill="#FFFFFF">ENGLISH EDITION</text>
  <text x="508" y="438" text-anchor="end" font-family="Arial, Helvetica, sans-serif" font-size="14" font-weight="700" fill="#6D28D9">PAPERBACK</text>
      <text x="300" y="494.5" text-anchor="middle" font-family="Georgia, 'Times New Roman', serif" font-size="42" font-weight="700" fill="#111827">Grimms' Fairy</text>
      <text x="300" y="545.5" text-anchor="middle" font-family="Georgia, 'Times New Roman', serif" font-size="42" font-weight="700" fill="#111827">Tales</text>
  <text x="300" y="624.5" text-anchor="middle" font-family="Arial, Helvetica, sans-serif" font-size="21" font-weight="700" fill="#4B5563">Jacob Grimm, Wilhelm Grimm</text>
  <path d="M118 742 H482" stroke="#6D28D9" stroke-width="4" stroke-linecap="round"/>
  <text x="300" y="816" text-anchor="middle" font-family="Arial, Helvetica, sans-serif" font-size="18" font-weight="700" letter-spacing="0" fill="#6D28D9">CASEFLOW BOOKS</text>
</svg>
