<svg xmlns="http://www.w3.org/2000/svg" width="600" height="900" viewBox="0 0 600 900" role="img" aria-labelledby="title-00000000-0000-4000-8000-000000009037 desc-00000000-0000-4000-8000-000000009037">
  <title id="title-00000000-0000-4000-8000-000000009037">Little Women - CaseFlow Books illustrative cover</title>
  <desc id="desc-00000000-0000-4000-8000-000000009037">Illustrative cover for Little Women by Louisa May Alcott.</desc>
  <rect width="600" height="900" fill="#FDF2F8"/>
  <rect x="34" y="34" width="532" height="832" rx="18" fill="#6D28D9" opacity="0.15"/>
  
        <path d="M52 210 C124 186 180 196 252 212 C324 254 380 254 548 198" fill="none" stroke="#DB2777" stroke-width="18" stroke-linecap="round" opacity="0.56"/>
        <path d="M52 292 C124 252 180 252 252 292 C324 332 380 332 548 276" fill="none" stroke="#6D28D9" stroke-width="15" stroke-linecap="round" opacity="0.43"/>
        <path d="M250 170 L340 170 L300 214 Z" fill="#6D28D9" opacity="0.7"/>
      
  <rect x="72" y="390" width="456" height="386" rx="18" fill="#FFFFFF"/>
  <rect x="92" y="414" width="190" height="34" rx="17" fill="#6D28D9"/>
  <text x="187" y="437" text-anchor="middle" font-family="Arial, Helvetica, sans-serif" font-size="15" font-weight="700" fill="#FFFFFF">ENGLISH EDITION</text>
  <text x="508" y="438" text-anchor="end" font-family="Arial, Helvetica, sans-serif" font-size="14" font-weight="700" fill="#6D28D9">PAPERBACK</text>
      <text x="300" y="520" text-anchor="middle" font-family="Georgia, 'Times New Roman', serif" font-size="42" font-weight="700" fill="#111827">Little Women</text>
  <text x="300" y="599" text-anchor="middle" font-family="Arial, Helvetica, sans-serif" font-size="21" font-weight="700" fill="#4B5563">Louisa May Alcott</text>
  <path d="M118 742 H482" stroke="#6D28D9" stroke-width="4" stroke-linecap="round"/>
  <text x="300" y="816" text-anchor="middle" font-family="Arial, Helvetica, sans-serif" font-size="18" font-weight="700" letter-spacing="0" fill="#6D28D9">CASEFLOW BOOKS</text>
</svg>
