<svg xmlns="http://www.w3.org/2000/svg" width="600" height="900" viewBox="0 0 600 900" role="img" aria-labelledby="title-00000000-0000-4000-8000-000000009041 desc-00000000-0000-4000-8000-000000009041" data-cover-asset-id="00000000-0000-4000-8000-000000009041" data-edition-id="00000000-0000-4000-8000-000000003006">
  <title id="title-00000000-0000-4000-8000-000000009041">Moby-Dick - CaseFlow Books illustrative cover</title>
  <desc id="desc-00000000-0000-4000-8000-000000009041">Project-created illustrative cover for Moby-Dick by Herman Melville.</desc>
  <metadata><![CDATA[{"assetId":"00000000-0000-4000-8000-000000009041","editionId":"00000000-0000-4000-8000-000000003006","title":"Moby-Dick","authors":["Herman Melville"],"language":"en","source":"project-created-vector"}]]></metadata>
  <rect width="600" height="900" fill="#0F172A"/>
  <rect x="34" y="34" width="532" height="832" rx="18" fill="#991B1B" opacity="0.15"/>
  
        <g opacity="0.58">
          <rect x="78" y="126" width="82" height="202" rx="8" fill="#94A3B8"/>
          <rect x="184" y="90" width="104" height="238" rx="8" fill="#991B1B"/>
          <rect x="320" y="142" width="74" height="186" rx="8" fill="#94A3B8"/>
          <rect x="426" y="112" width="92" height="216" rx="8" fill="#991B1B"/>
        </g>
        <g stroke="#F8FAFC" stroke-width="5" opacity="0.68">
          <path d="M104 168 H136 M104 214 H136 M210 142 H262 M210 188 H262 M346 190 H370 M452 162 H496 M452 210 H496"/>
        </g>
      
  <rect x="72" y="390" width="456" height="386" rx="18" fill="#F8FAFC"/>
  <rect x="92" y="414" width="190" height="34" rx="17" fill="#991B1B"/>
  <text x="187" y="437" text-anchor="middle" font-family="Arial, Helvetica, sans-serif" font-size="15" font-weight="700" fill="#FFFFFF">ENGLISH EDITION</text>
  <text x="508" y="438" text-anchor="end" font-family="Arial, Helvetica, sans-serif" font-size="14" font-weight="700" fill="#991B1B">PAPERBACK</text>
      <text x="300" y="520" text-anchor="middle" font-family="Georgia, 'Times New Roman', serif" font-size="42" font-weight="700" fill="#111827">Moby-Dick</text>
  <text x="300" y="599" text-anchor="middle" font-family="Arial, Helvetica, sans-serif" font-size="21" font-weight="700" fill="#475569">Herman Melville</text>
  <path d="M118 742 H482" stroke="#991B1B" stroke-width="4" stroke-linecap="round"/>
  <text x="300" y="816" text-anchor="middle" font-family="Arial, Helvetica, sans-serif" font-size="18" font-weight="700" letter-spacing="0" fill="#991B1B">CASEFLOW BOOKS</text>
</svg>
