<svg xmlns="http://www.w3.org/2000/svg" width="600" height="900" viewBox="0 0 600 900" role="img" aria-labelledby="title-00000000-0000-4000-8000-000000009062 desc-00000000-0000-4000-8000-000000009062">
  <title id="title-00000000-0000-4000-8000-000000009062">Bá tước Monte Cristo - CaseFlow Books illustrative cover</title>
  <desc id="desc-00000000-0000-4000-8000-000000009062">Illustrative cover for Bá tước Monte Cristo by Alexandre Dumas.</desc>
  <rect width="600" height="900" fill="#ECFDF5"/>
  <rect x="34" y="34" width="532" height="832" rx="18" fill="#166534" opacity="0.15"/>
  
        <path d="M160 330 C150 236 198 168 276 116" fill="none" stroke="#65A30D" stroke-width="13" stroke-linecap="round" opacity="0.48"/>
        <path d="M276 116 C338 150 382 212 396 322" fill="none" stroke="#166534" stroke-width="12" stroke-linecap="round" opacity="0.42"/>
        <ellipse cx="228" cy="160" rx="40" ry="18" fill="#166534" opacity="0.58" transform="rotate(-24 230 188)"/>
        <ellipse cx="384" cy="214" rx="42" ry="18" fill="#65A30D" opacity="0.54" transform="rotate(26 384 212)"/>
      
  <rect x="72" y="390" width="456" height="386" rx="18" fill="#FFFFFF"/>
  <rect x="92" y="414" width="190" height="34" rx="17" fill="#166534"/>
  <text x="187" y="437" text-anchor="middle" font-family="Arial, Helvetica, sans-serif" font-size="15" font-weight="700" fill="#FFFFFF">BẢN TIẾNG VIỆT</text>
  <text x="508" y="438" text-anchor="end" font-family="Arial, Helvetica, sans-serif" font-size="14" font-weight="700" fill="#166534">PAPERBACK</text>
      <text x="300" y="494.5" text-anchor="middle" font-family="Georgia, 'Times New Roman', serif" font-size="42" font-weight="700" fill="#111827">Bá tước Monte</text>
      <text x="300" y="545.5" text-anchor="middle" font-family="Georgia, 'Times New Roman', serif" font-size="42" font-weight="700" fill="#111827">Cristo</text>
  <text x="300" y="624.5" text-anchor="middle" font-family="Arial, Helvetica, sans-serif" font-size="21" font-weight="700" fill="#334155">Alexandre Dumas</text>
  <path d="M118 742 H482" stroke="#166534" stroke-width="4" stroke-linecap="round"/>
  <text x="300" y="816" text-anchor="middle" font-family="Arial, Helvetica, sans-serif" font-size="18" font-weight="700" letter-spacing="0" fill="#166534">CASEFLOW BOOKS</text>
</svg>
