<svg xmlns="http://www.w3.org/2000/svg" width="600" height="900" viewBox="0 0 600 900" role="img" aria-labelledby="title-00000000-0000-4000-8000-000000009082 desc-00000000-0000-4000-8000-000000009082">
  <title id="title-00000000-0000-4000-8000-000000009082">Khu vườn bí mật - CaseFlow Books illustrative cover</title>
  <desc id="desc-00000000-0000-4000-8000-000000009082">Illustrative cover for Khu vườn bí mật by Frances Hodgson Burnett.</desc>
  <rect width="600" height="900" fill="#172554"/>
  <rect x="34" y="34" width="532" height="832" rx="18" fill="#0F766E" opacity="0.15"/>
  
        <path d="M52 210 C124 191 180 171 252 212 C324 254 380 254 548 198" fill="none" stroke="#93C5FD" stroke-width="18" stroke-linecap="round" opacity="0.56"/>
        <path d="M52 292 C124 252 180 252 252 292 C324 332 380 332 548 276" fill="none" stroke="#0F766E" stroke-width="15" stroke-linecap="round" opacity="0.43"/>
        <path d="M250 170 L340 170 L300 214 Z" fill="#0F766E" opacity="0.7"/>
      
  <rect x="72" y="390" width="456" height="386" rx="18" fill="#F8FAFC"/>
  <rect x="92" y="414" width="190" height="34" rx="17" fill="#0F766E"/>
  <text x="187" y="437" text-anchor="middle" font-family="Arial, Helvetica, sans-serif" font-size="15" font-weight="700" fill="#FFFFFF">BẢN TIẾNG VIỆT</text>
  <text x="508" y="438" text-anchor="end" font-family="Arial, Helvetica, sans-serif" font-size="14" font-weight="700" fill="#0F766E">PAPERBACK</text>
      <text x="300" y="520" text-anchor="middle" font-family="Georgia, 'Times New Roman', serif" font-size="42" font-weight="700" fill="#111827">Khu vườn bí mật</text>
  <text x="300" y="599" text-anchor="middle" font-family="Arial, Helvetica, sans-serif" font-size="21" font-weight="700" fill="#475569">Frances Hodgson Burnett</text>
  <path d="M118 742 H482" stroke="#0F766E" stroke-width="4" stroke-linecap="round"/>
  <text x="300" y="816" text-anchor="middle" font-family="Arial, Helvetica, sans-serif" font-size="18" font-weight="700" letter-spacing="0" fill="#0F766E">CASEFLOW BOOKS</text>
</svg>
