<svg xmlns="http://www.w3.org/2000/svg" width="600" height="900" viewBox="0 0 600 900" role="img" aria-labelledby="title-00000000-0000-4000-8000-000000009056 desc-00000000-0000-4000-8000-000000009056" data-cover-asset-id="00000000-0000-4000-8000-000000009056" data-edition-id="00000000-0000-4000-8000-000000004037">
  <title id="title-00000000-0000-4000-8000-000000009056">Binh pháp Tôn Tử - CaseFlow Books illustrative cover</title>
  <desc id="desc-00000000-0000-4000-8000-000000009056">Project-created illustrative cover for Binh pháp Tôn Tử by Sun Tzu.</desc>
  <metadata><![CDATA[{"assetId":"00000000-0000-4000-8000-000000009056","editionId":"00000000-0000-4000-8000-000000004037","title":"Binh pháp Tôn Tử","authors":["Sun Tzu"],"language":"vi","source":"project-created-vector"}]]></metadata>
  <rect width="600" height="900" fill="#172554"/>
  <rect x="34" y="34" width="532" height="832" rx="18" fill="#0F766E" opacity="0.15"/>
  
        <g opacity="0.3" stroke="#F8FAFC" stroke-width="2">
          <path d="M70 118 H530 M70 174 H530 M70 230 H530 M70 286 H530"/>
          <path d="M114 92 V326 M194 92 V326 M274 92 V326 M354 92 V326 M434 92 V326 M514 92 V326"/>
        </g>
        <circle cx="341" cy="153" r="62" fill="none" stroke="#93C5FD" stroke-width="16" opacity="0.8"/>
        <path d="M328 236 L392 300" stroke="#93C5FD" stroke-width="20" stroke-linecap="round" opacity="0.76"/>
      
  <rect x="72" y="390" width="456" height="386" rx="18" fill="#F8FAFC"/>
  <rect x="92" y="414" width="190" height="34" rx="17" fill="#0F766E"/>
  <text x="187" y="437" text-anchor="middle" font-family="Arial, Helvetica, sans-serif" font-size="15" font-weight="700" fill="#FFFFFF">BẢN TIẾNG VIỆT</text>
  <text x="508" y="438" text-anchor="end" font-family="Arial, Helvetica, sans-serif" font-size="14" font-weight="700" fill="#0F766E">PAPERBACK</text>
      <text x="300" y="520" text-anchor="middle" font-family="Georgia, 'Times New Roman', serif" font-size="42" font-weight="700" fill="#111827">Binh pháp Tôn Tử</text>
  <text x="300" y="599" text-anchor="middle" font-family="Arial, Helvetica, sans-serif" font-size="21" font-weight="700" fill="#475569">Sun Tzu</text>
  <path d="M118 742 H482" stroke="#0F766E" stroke-width="4" stroke-linecap="round"/>
  <text x="300" y="816" text-anchor="middle" font-family="Arial, Helvetica, sans-serif" font-size="18" font-weight="700" letter-spacing="0" fill="#0F766E">CASEFLOW BOOKS</text>
</svg>
