<svg xmlns="http://www.w3.org/2000/svg" width="600" height="900" viewBox="0 0 600 900" role="img" aria-labelledby="title-00000000-0000-4000-8000-000000009078 desc-00000000-0000-4000-8000-000000009078" data-cover-asset-id="00000000-0000-4000-8000-000000009078" data-edition-id="00000000-0000-4000-8000-000000004036">
  <title id="title-00000000-0000-4000-8000-000000009078">Nhà tiên tri - CaseFlow Books illustrative cover</title>
  <desc id="desc-00000000-0000-4000-8000-000000009078">Project-created illustrative cover for Nhà tiên tri by Kahlil Gibran.</desc>
  <metadata><![CDATA[{"assetId":"00000000-0000-4000-8000-000000009078","editionId":"00000000-0000-4000-8000-000000004036","title":"Nhà tiên tri","authors":["Kahlil Gibran"],"language":"vi","source":"project-created-vector"}]]></metadata>
  <rect width="600" height="900" fill="#E0F2FE"/>
  <rect x="34" y="34" width="532" height="832" rx="18" fill="#0F766E" opacity="0.15"/>
  
        <path d="M70 158 C150 96 230 96 300 158 C372 222 452 220 536 156" fill="none" stroke="#0284C7" stroke-width="18" stroke-linecap="round" opacity="0.52"/>
        <path d="M80 250 C166 304 244 306 316 248 C378 198 454 198 530 252" fill="none" stroke="#0F766E" stroke-width="12" stroke-linecap="round" opacity="0.42"/>
        <rect x="112" y="112" width="84" height="132" rx="42" fill="#F8FAFC" opacity="0.34"/>
        <rect x="404" y="178" width="84" height="132" rx="42" fill="#F8FAFC" opacity="0.34"/>
      
  <rect x="72" y="390" width="456" height="386" rx="18" fill="#F8FAFC"/>
  <rect x="92" y="414" width="190" height="34" rx="17" fill="#0F766E"/>
  <text x="187" y="437" text-anchor="middle" font-family="Arial, Helvetica, sans-serif" font-size="15" font-weight="700" fill="#FFFFFF">BẢN TIẾNG VIỆT</text>
  <text x="508" y="438" text-anchor="end" font-family="Arial, Helvetica, sans-serif" font-size="14" font-weight="700" fill="#0F766E">PAPERBACK</text>
      <text x="300" y="520" text-anchor="middle" font-family="Georgia, 'Times New Roman', serif" font-size="42" font-weight="700" fill="#111827">Nhà tiên tri</text>
  <text x="300" y="599" text-anchor="middle" font-family="Arial, Helvetica, sans-serif" font-size="21" font-weight="700" fill="#334155">Kahlil Gibran</text>
  <path d="M118 742 H482" stroke="#0F766E" stroke-width="4" stroke-linecap="round"/>
  <text x="300" y="816" text-anchor="middle" font-family="Arial, Helvetica, sans-serif" font-size="18" font-weight="700" letter-spacing="0" fill="#0F766E">CASEFLOW BOOKS</text>
</svg>
