<svg xmlns="http://www.w3.org/2000/svg" width="600" height="900" viewBox="0 0 600 900" role="img" aria-labelledby="title-00000000-0000-4000-8000-000000009060 desc-00000000-0000-4000-8000-000000009060" data-cover-asset-id="00000000-0000-4000-8000-000000009060" data-edition-id="00000000-0000-4000-8000-000000004024">
  <title id="title-00000000-0000-4000-8000-000000009060">Tiếng gọi nơi hoang dã - CaseFlow Books illustrative cover</title>
  <desc id="desc-00000000-0000-4000-8000-000000009060">Project-created illustrative cover for Tiếng gọi nơi hoang dã by Jack London.</desc>
  <metadata><![CDATA[{"assetId":"00000000-0000-4000-8000-000000009060","editionId":"00000000-0000-4000-8000-000000004024","title":"Tiếng gọi nơi hoang dã","authors":["Jack London"],"language":"vi","source":"project-created-vector"}]]></metadata>
  <rect width="600" height="900" fill="#FFF1F2"/>
  <rect x="34" y="34" width="532" height="832" rx="18" fill="#9F1239" opacity="0.15"/>
  
        <path d="M90 322 C118 198 202 118 318 84" fill="none" stroke="#9F1239" stroke-width="15" stroke-linecap="round" opacity="0.42"/>
        <path d="M504 326 C482 206 414 126 314 82" fill="none" stroke="#BE123C" stroke-width="15" stroke-linecap="round" opacity="0.42"/>
        <ellipse cx="210" cy="160" rx="62" ry="24" fill="#BE123C" opacity="0.58" transform="rotate(-28 210 160)"/>
        <ellipse cx="390" cy="184" rx="62" ry="24" fill="#9F1239" opacity="0.48" transform="rotate(28 390 184)"/>
        <ellipse cx="288" cy="256" rx="74" ry="28" fill="#BE123C" opacity="0.42" transform="rotate(5 288 256)"/>
      
  <rect x="72" y="390" width="456" height="386" rx="18" fill="#FFFFFF"/>
  <rect x="92" y="414" width="190" height="34" rx="17" fill="#9F1239"/>
  <text x="187" y="437" text-anchor="middle" font-family="Arial, Helvetica, sans-serif" font-size="15" font-weight="700" fill="#FFFFFF">BẢN TIẾNG VIỆT</text>
  <text x="508" y="438" text-anchor="end" font-family="Arial, Helvetica, sans-serif" font-size="14" font-weight="700" fill="#9F1239">PAPERBACK</text>
      <text x="300" y="494.5" text-anchor="middle" font-family="Georgia, 'Times New Roman', serif" font-size="42" font-weight="700" fill="#111827">Tiếng gọi nơi</text>
      <text x="300" y="545.5" text-anchor="middle" font-family="Georgia, 'Times New Roman', serif" font-size="42" font-weight="700" fill="#111827">hoang dã</text>
  <text x="300" y="624.5" text-anchor="middle" font-family="Arial, Helvetica, sans-serif" font-size="21" font-weight="700" fill="#4B5563">Jack London</text>
  <path d="M118 742 H482" stroke="#9F1239" stroke-width="4" stroke-linecap="round"/>
  <text x="300" y="816" text-anchor="middle" font-family="Arial, Helvetica, sans-serif" font-size="18" font-weight="700" letter-spacing="0" fill="#9F1239">CASEFLOW BOOKS</text>
</svg>
